<svg width="17" height="21" viewBox="0 0 17 21" fill="none" xmlns="http://www.w3.org/2000/svg">
<path fill-rule="evenodd" clip-rule="evenodd" d="M5.67542 5.21985C5.67542 3.60764 6.91562 2.21985 8.67542 2.21985C10.4352 2.21985 11.6754 3.60764 11.6754 5.21985V6.21985H5.67542V5.21985ZM4.17542 7.71985V10.2198H5.67542V7.71985H11.6754V10.2198H13.1754V7.71985H15.1754V18.4698C15.1754 18.884 14.8396 19.2198 14.4254 19.2198H2.92542C2.51121 19.2198 2.17542 18.884 2.17542 18.4698V7.71985H4.17542ZM4.17542 6.21985V5.21985C4.17542 2.83206 6.03525 0.719849 8.67542 0.719849C11.3156 0.719849 13.1754 2.83206 13.1754 5.21985V6.21985H15.9254H16.6754V6.96985V18.4698C16.6754 19.7124 15.668 20.7198 14.4254 20.7198H2.92542C1.68278 20.7198 0.675415 19.7124 0.675415 18.4698V6.96985V6.21985H1.42542H4.17542Z" fill="#1F2026"/>
</svg>
