<svg width="21" height="19" viewBox="0 0 21 19" fill="none" xmlns="http://www.w3.org/2000/svg">
<path fill-rule="evenodd" clip-rule="evenodd" d="M6.12543 2.21985C3.89478 2.21985 2.12543 4.02891 2.12543 6.21985C2.12543 7.14805 2.50227 8.16345 3.17413 9.23035C3.84235 10.2914 4.76691 11.3472 5.7767 12.3417C7.18312 13.7268 8.65723 14.9077 9.79623 15.8201C10.0988 16.0625 10.3777 16.2859 10.6254 16.4892C10.8731 16.2859 11.152 16.0625 11.4546 15.8201C12.5936 14.9077 14.0677 13.7268 15.4741 12.3417C16.4839 11.3472 17.4085 10.2914 18.0767 9.23035C18.7486 8.16345 19.1254 7.14805 19.1254 6.21985C19.1254 4.02883 17.3568 2.21985 15.1254 2.21985C12.9727 2.21985 11.6992 3.92211 11.3516 4.46727C11.0143 4.9964 10.2365 4.99638 9.89923 4.46727C9.55163 3.9221 8.27816 2.21985 6.12543 2.21985ZM0.625427 6.21985C0.625427 3.21079 3.05608 0.719849 6.12543 0.719849C8.35686 0.719849 9.85033 2.02192 10.6254 2.93566C11.4005 2.02192 12.894 0.719849 15.1254 0.719849C18.1956 0.719849 20.6254 3.21087 20.6254 6.21985C20.6254 7.54165 20.096 8.83875 19.346 10.0296C18.5923 11.2264 17.5794 12.3737 16.5267 13.4104C15.0683 14.8467 13.4334 16.1582 12.2756 17.087C11.7903 17.4763 11.3888 17.7984 11.1193 18.0342C10.8365 18.2817 10.4143 18.2817 10.1315 18.0342C9.86203 17.7984 9.46053 17.4763 8.97523 17.087C7.81744 16.1582 6.18255 14.8467 4.72416 13.4104C3.67145 12.3737 2.65851 11.2264 1.90485 10.0296C1.15484 8.83875 0.625427 7.54165 0.625427 6.21985Z" fill="#1F2026"/>
</svg>
