<svg width="17" height="19" viewBox="0 0 17 19" fill="none" xmlns="http://www.w3.org/2000/svg">
<path fill-rule="evenodd" clip-rule="evenodd" d="M8.56543 0.719849C6.35629 0.719849 4.56543 2.51071 4.56543 4.71985V5.71985C4.56543 7.92895 6.35629 9.71985 8.56543 9.71985C10.7745 9.71985 12.5654 7.92895 12.5654 5.71985V4.71985C12.5654 2.51071 10.7745 0.719849 8.56543 0.719849ZM6.06543 4.71985C6.06543 3.33914 7.18473 2.21985 8.56543 2.21985C9.94613 2.21985 11.0654 3.33914 11.0654 4.71985V5.71985C11.0654 7.10056 9.94613 8.21985 8.56543 8.21985C7.18473 8.21985 6.06543 7.10056 6.06543 5.71985V4.71985ZM2.06775 17.0884C2.53864 13.9775 5.58346 12.2198 8.56763 12.2198C11.5512 12.2198 14.5964 13.9775 15.0673 17.0884C15.07 17.1064 15.0679 17.117 15.0654 17.1246C15.0624 17.1335 15.0557 17.1467 15.0413 17.1618C15.0107 17.1939 14.9548 17.2237 14.8825 17.2237H2.25261C2.1803 17.2237 2.12441 17.1939 2.09381 17.1618C2.07937 17.1467 2.07269 17.1335 2.0697 17.1246C2.06717 17.117 2.06504 17.1063 2.06775 17.0884ZM8.56763 10.7198C5.13864 10.7198 1.2058 12.7602 0.584646 16.8639C0.421666 17.9406 1.3227 18.7237 2.25261 18.7237H14.8825C15.8124 18.7237 16.7134 17.9406 16.5504 16.8639C15.9292 12.7602 11.996 10.7198 8.56763 10.7198Z" fill="#1F2026"/>
</svg>
